<svg xmlns="http://www.w3.org/2000/svg" width="50" height="50" viewBox="0 0 50 50" xml:space="preserve"><rect width="100%" height="100%" fill="rgba(0, 0, 0, 0)"/><circle style="stroke:#000;stroke-width:0;stroke-dasharray:none;stroke-linecap:butt;stroke-dashoffset:0;stroke-linejoin:miter;stroke-miterlimit:4;fill:#233142;fill-rule:nonzero;opacity:1" vector-effect="non-scaling-stroke" r="40" transform="matrix(.61 0 0 .61 24.63 24.63)"/><path style="stroke:none;stroke-width:1;stroke-dasharray:none;stroke-linecap:butt;stroke-dashoffset:0;stroke-linejoin:miter;stroke-miterlimit:4;fill:#fff;fill-rule:nonzero;opacity:1" transform="matrix(.82 0 0 .82 -178.058 -213.43)" d="M232.344 303.048c6.18 0 14.965-4.694 18.358-7.947.51-.465 1.115-.093.65.418-4.508 5.02-12.78 8.738-18.45 8.738-4.834 0-7.902-2.882-7.902-6.693 0-2.602.698-8.273 7.948-17.52 7.018-8.972 13.803-13.293 18.497-13.293 1.766 0 2.79.976 2.79 2.602s-1.814 2.463-1.302 1.487.697-2.974-1.395-2.974c-2.277 0-9.713 3.253-17.847 13.292-5.577 6.832-7.76 12.177-7.76 16.406 0 3.44 3.532 5.484 6.414 5.484z"/><path style="stroke:none;stroke-width:1;stroke-dasharray:none;stroke-linecap:butt;stroke-dashoffset:0;stroke-linejoin:miter;stroke-miterlimit:4;fill:#fff;fill-rule:nonzero;opacity:1" vector-effect="non-scaling-stroke" transform="matrix(.82 0 0 .82 -165.998 -208.38)" d="M232.344 303.048c6.18 0 14.965-4.694 18.358-7.947.51-.465 1.115-.093.65.418-4.508 5.02-12.78 8.738-18.45 8.738-4.834 0-7.902-2.882-7.902-6.693 0-2.602.698-8.273 7.948-17.52 7.018-8.972 13.803-13.293 18.497-13.293 1.766 0 2.79.976 2.79 2.602s-1.814 2.463-1.302 1.487.697-2.974-1.395-2.974c-2.277 0-9.713 3.253-17.847 13.292-5.577 6.832-7.76 12.177-7.76 16.406 0 3.44 3.532 5.484 6.414 5.484z"/></svg>