<svg version="1.1" xmlns="http://www.w3.org/2000/svg" xmlns:xlink="http://www.w3.org/1999/xlink" width="350" height="73.656" viewBox="0 0 350 73.656"><defs><linearGradient id="a"><stop stop-color="#8f5e25" offset="0"/><stop stop-color="#fbf4a1" offset=".5"/><stop stop-color="#8f5e25" offset="1"/></linearGradient></defs><path d="M7.343 39.876c6.18 0 14.965-4.694 18.358-7.947.51-.465 1.115-.093.65.418-4.508 5.02-12.78 8.738-18.45 8.738-4.834 0-7.902-2.882-7.902-6.693 0-2.602.698-8.273 7.948-17.521C14.965 7.9 21.75 3.579 26.444 3.579c1.766 0 2.789.976 2.789 2.602s-1.813 2.463-1.301 1.487.697-2.974-1.395-2.974c-2.277 0-9.713 3.253-17.847 13.292C3.113 24.818.93 30.163.93 34.392c0 3.44 3.532 5.484 6.414 5.484zm24.86-11.712c3.253 0 12.688-4.368 15.523-5.902.232-.14 1.208-.093.418.418-3.067 1.999-12.92 6.46-15.988 6.46-2.277 0-2.928-1.347-2.928-2.323s.186-1.441.093-1.534c-.14-.14-.418-.093-1.905.697-1.348.79-2.835 1.394-3.3 1.394-.65 0-1.116-.418-1.116-.697 0-.883.558-2.091 2.324-3.393 1.487-1.162 2.417-1.394 3.207-1.394 1.069 0 1.72 1.673 1.255 1.673s-.604-.93-1.116-.93c-.464 0-1.394.373-2.695 1.256-1.209.79-2.138 2.137-2.138 2.51 0 .092.046.139.186.139.418 0 1.208-.326 2.51-.976 1.766-.837 2.928-1.488 3.485-1.488.186 0 .604.093.604.419 0 .372-.464 1.208-.464 2.277 0 .79.836 1.394 2.045 1.394zM59.06 30.35c-1.208 0-1.115-1.162-.558-4.323.605-3.346.698-3.764.465-3.857-.325-.186-1.952 1.44-3.16 2.928-1.487 1.813-2.185 2.277-2.742 2.184-.512-.093-.65-.65-.047-3.904.511-2.556.604-4.043.233-4.275-.512-.28-1.116.185-3.672 4.275-2.789 4.601-3.393 6.693-4.136 6.693-.419 0-.558-.372-.465-1.023.418-2.51.604-5.251.65-6.274.047-.93 1.302-.93 1.209.093-.14 1.07-.604 3.253-.837 4.555-.093.697.93-1.209 2.835-4.415 2.37-3.904 3.486-5.066 4.509-4.88 1.347.278 1.022 2.23.464 5.298l-.418 2.277c-.14.744.14.93.744.186.279-.279.65-.65.976-1.069 1.72-2.091 3.392-3.764 4.136-3.764.511 0 .79.51.79 1.022s-.186 1.86-.65 3.997c-.605 2.789-.558 3.486-.14 3.486 2.184 0 8.18-3.533 14.361-7.297.232-.14 1.116.14.372.604-4.276 2.789-11.851 7.483-14.919 7.483zm19.515-6.879c-1.022 0-4.09 2.324-7.39 8.459-.836 2.835-1.626 5.345-2.137 6.785-1.162 3.347-1.627 4.462-1.952 4.462-.279.047-.604-.232-.65-.558 0-.232.696-3.857 2.927-8.737.372-.883.79-1.72 1.209-2.51 1.022-3.439 1.812-7.343 2.649-12.176.093-.651.976-.372.883.325-.419 2.788-1.162 6.135-2.045 9.295 2.463-3.811 4.926-6.042 6.6-6.042.604 0 1.533.837 1.533 2.51 0 .232-.046.465-.046.697 3.346-1.627 7.157-3.16 10.038-3.95.558-.14 1.116.325.512.464-2.882.79-7.204 2.603-10.783 4.462a8.823 8.823 0 0 1-1.998 3.44c-2.556 2.555-5.206 2.277-5.206 1.022 0-1.116 2.65-2.975 6.135-4.787.14-.558.233-1.07.28-1.58.046-.977-.187-1.58-.559-1.58zm-1.533 6.228a5.97 5.97 0 0 0 1.394-1.998c-2.696 1.44-4.648 2.788-4.648 3.439 0 .465 1.07.697 3.254-1.44zm26.626-7.715c.65 0 .883.511.186.604-1.999.326-10.643 2.092-13.618 3.486-.14.465-.418 1.022-.697 1.534-1.812 3.02-4.508 3.439-5.066 2.602-.372-.604.883-2.649 4.555-4.322.046 0 .093-.046.186-.093.325-.836.418-1.58.186-1.952s-1.023-.093-2.231.976c-1.116 1.023-2.231 1.999-2.742 1.906-.697-.093-.326-1.766-.14-2.464 1.488-5.251 3.207-12.362 5.438-19.24.93-2.882 1.58-4.23 2.23-3.672.42.418.326 1.812-.371 3.114-.744 1.487-.976 2.463-1.301 3.346-2.696 7.761-3.532 11.387-5.206 16.452-.093.372-.51 1.488-.278 1.488.185 0 1.068-.79 1.859-1.58 1.58-1.534 2.835-1.906 3.439-1.441.465.325.65 1.255.372 2.556 4.461-1.72 11.572-3.3 13.199-3.3zm-15.105 5.205.14-.325c-1.906 1.115-3.533 2.37-3.3 2.789.232.325 2.23-.744 3.16-2.464zm13.288 1.302c-2.417.186-3.486-1.86-2.51-3.997.93-2.138 2.788-2.975 3.764-2.789.883.14 1.162.883.79 1.952-.557 1.441-2.277 2.463-3.95 3.021.186.65.79.976 1.627.93 2.138-.186 5.112-1.673 13.524-5.345.604-.279.744.325.372.465-7.064 3.114-11.061 5.577-13.617 5.763zm-1.674-3.672c-.232.511-.325.93-.325 1.301 1.348-.464 2.975-1.766 3.346-2.788.14-.418.093-.837-.232-.93-.511-.14-1.998.465-2.789 2.417zm10.081 14.733c-.604.046-1.069-1.72-.79-5.205.558-8.227 1.906-15.337 3.393-21.798C115.139 2.51 116.3 0 117.045 0c.418 0 .51 1.115.371 1.534-.139.557-.743 1.533-1.254 2.649-.093.232-1.348 4.833-2.231 8.97-.744 3.485-2.789 13.013-3.579 21.564-.372 4.276.372 4.788-.093 4.834zm3.992 0c-.604.046-1.069-1.72-.79-5.205.558-8.227 1.906-15.337 3.393-21.798C119.131 2.51 120.294 0 121.037 0c.418 0 .511 1.115.372 1.534-.14.557-.744 1.533-1.255 2.649-.093.232-1.348 4.833-2.231 8.97-.744 3.485-2.789 13.013-3.579 21.564-.371 4.276.372 4.788-.093 4.834zm19.697.325c6.181 0 14.965-4.694 18.358-7.947.511-.465 1.115-.093.65.418-4.508 5.02-12.78 8.738-18.45 8.738-4.834 0-7.901-2.882-7.901-6.693 0-2.602.697-8.273 7.947-17.521C141.57 7.9 148.355 3.579 153.05 3.579c1.766 0 2.788.976 2.788 2.602s-1.812 2.463-1.301 1.487.697-2.974-1.395-2.974c-2.277 0-9.713 3.253-17.846 13.292-5.577 6.832-7.762 12.177-7.762 16.406 0 3.44 3.532 5.484 6.414 5.484zm17.75-13.85c.37-.79.836-1.487 1.254-2.044-.232-.233-.465-.465-.604-.79-.837-1.767.697-3.858 2.742-3.858s3.3 1.905 3.3 4.833v.14c.186 0 .371 0 .604-.047 2.324-.186 6.646-1.3 8.598-1.998.325-.14.558.372.325.465-1.022.418-6.32 2.138-9.063 2.37-.186.046-.371.046-.51.046-.42 4.462-3.719 8.087-5.857 8.087-2.091 0-2.649-3.578-.79-7.204zm.603 6.368c2.092 0 4.601-3.16 5.02-7.25-1.255 0-2.603-.186-3.579-.651-.372.511-.79 1.115-1.115 1.72-1.766 3.439-1.209 6.18-.326 6.18zm3.114-9.946c0 .093-.511.558-1.115 1.301.836.372 1.952.558 3.114.558v-.465c0-2.417-1.162-3.718-2.464-3.718-1.254 0-2.416 1.208-1.766 2.603.093.232.233.371.372.557.697-.743 1.301-1.161 1.44-1.161.28 0 .42.139.42.325zm23.326 7.9c-1.208 0-1.115-1.161-.557-4.322.604-3.346.697-3.764.465-3.857-.326-.186-1.952 1.44-3.16 2.928-1.488 1.813-2.185 2.277-2.743 2.184-.511-.093-.65-.65-.046-3.904.51-2.556.604-4.043.232-4.275-.511-.28-1.115.185-3.672 4.275-2.788 4.601-3.392 6.693-4.136 6.693-.418 0-.558-.372-.465-1.023.419-2.51.604-5.251.65-6.274.047-.93 1.302-.93 1.21.093-.14 1.07-.605 3.253-.837 4.555-.093.697.93-1.209 2.835-4.415 2.37-3.904 3.485-5.066 4.508-4.88 1.348.278 1.022 2.23.465 5.298l-.419 2.277c-.139.744.14.93.744.186.279-.279.65-.65.976-1.069 1.72-2.091 3.393-3.764 4.136-3.764.512 0 .79.51.79 1.022s-.185 1.86-.65 3.997c-.604 2.789-.558 3.486-.14 3.486 2.185 0 8.18-3.533 14.361-7.297.233-.14 1.116.14.372.604-4.276 2.789-11.851 7.483-14.919 7.483zm25.697 0c-1.208 0-1.115-1.161-.558-4.322.605-3.346.697-3.764.465-3.857-.325-.186-1.952 1.44-3.16 2.928-1.487 1.813-2.185 2.277-2.742 2.184-.512-.093-.651-.65-.047-3.904.511-2.556.604-4.043.233-4.275-.512-.28-1.116.185-3.672 4.275-2.789 4.601-3.393 6.693-4.136 6.693-.419 0-.558-.372-.465-1.023.418-2.51.604-5.251.65-6.274.047-.93 1.302-.93 1.209.093-.14 1.07-.604 3.253-.837 4.555-.093.697.93-1.209 2.835-4.415 2.37-3.904 3.486-5.066 4.509-4.88 1.347.278 1.022 2.23.464 5.298l-.418 2.277c-.14.744.14.93.744.186.278-.279.65-.65.976-1.069 1.72-2.091 3.392-3.764 4.136-3.764.511 0 .79.51.79 1.022s-.186 1.86-.65 3.997c-.605 2.789-.558 3.486-.14 3.486 2.184 0 8.18-3.533 14.361-7.297.232-.14 1.115.14.372.604-4.276 2.789-11.852 7.483-14.919 7.483zm15.797-1.626c.326-1.487 1.07-3.486 1.72-4.74-.325.371-.837.976-1.72 1.905-1.58 1.673-4.23 3.718-5.066 3.718-.65 0-1.022-.372-.93-1.58.094-1.069.652-2.417 1.07-3.3.558-1.255 1.44-2.51 1.905-2.602.465-.047.558.371.558.51 0 .373-1.115 1.302-1.766 2.557-.511 1.022-.837 2.045-.93 2.417-.139.743.047 1.069.28 1.069.743 0 3.346-2.185 4.322-3.254 1.766-1.905 2.881-3.346 3.532-3.207.557.14.325.465-.326 1.86-.557 1.208-1.347 3.16-1.766 4.74-.418 1.673.047 2.184.604 2.184 3.393 0 12.317-6.646 16.546-8.923.232-.093 1.162-.046.418.465-4.183 2.695-13.292 9.388-17.056 9.388-1.395 0-1.906-1.023-1.395-3.207zm15.844-6.228c.093-.371.418-.371.65-.418.28 0 .419.093.372.511-.093.883-.697 2.51-.79 2.882-.046.093 0 .186.14.186s1.487-.651 2.416-1.116c1.348-.697 2.278-1.208 2.975-1.208s1.255.558 1.255 1.487c-.093 1.301-.047 2.092.372 2.138.836.186 3.857-.744 6.18-1.72l7.158-2.974c.418-.186.65.465.14.697-1.906.976-4.555 2.045-7.018 3.114-2.417 1.022-5.577 2.045-6.972 1.766-.976-.186-1.208-1.162-1.115-2.463.046-.697 0-.976-.14-1.07-.232-.139-.743.047-1.626.512-.744.372-3.3 1.673-3.718 1.673-.28 0-1.116-.325-1.116-.697 0-.232.605-1.812.837-3.3zm32.993-.418c.233 0 .419.465.186.558-.558.14-2.788 1.394-8.133 3.207-4.23 1.44-5.298 1.673-6.042 1.673-1.208 0-1.58-.837-1.58-1.58 0-.698.186-1.906.465-2.696.185-.65.418-1.023 1.208-1.162.232-.046.511.232.232.744-.697 1.44-.836 2.323-.93 3.067-.046.558.187.837.419.837.604 0 1.906-.14 5.856-1.534 4.555-1.627 8.04-3.114 8.32-3.114zm-12.967-3.3c-.232-.093-.418-.883-.325-1.208.093-.279.465-.79.744-.744.418.093.697.65.604 1.07-.14.417-.744.929-1.023.882zm6.41 8.226c-.14-1.068.604-2.51 2.277-3.904 1.487-1.254 2.649-1.487 3.439-1.487 1.069 0 .976 1.162.511.976-.604-.232-1.766-.046-3.253 1.07s-2.045 2.23-1.999 3.02c.047.976 1.488 1.394 3.021 1.209 3.44-.372 11.015-3.858 14.315-5.624.232-.14 1.208-.093.465.418-3.486 2.231-11.34 5.484-14.5 5.95-2.185.324-4.044-.047-4.277-1.628zm21.327 1.162c3.254 0 12.688-4.368 15.523-5.902.233-.14 1.209-.093.419.418-3.068 1.999-12.92 6.46-15.988 6.46-2.277 0-2.928-1.347-2.928-2.323s.186-1.441.093-1.534c-.14-.14-.418-.093-1.906.697-1.348.79-2.835 1.394-3.3 1.394-.65 0-1.115-.418-1.115-.697 0-.883.558-2.091 2.324-3.393 1.487-1.162 2.417-1.394 3.207-1.394 1.069 0 1.72 1.673 1.255 1.673s-.605-.93-1.116-.93c-.465 0-1.394.373-2.695 1.256-1.209.79-2.138 2.137-2.138 2.51 0 .092.046.139.186.139.418 0 1.208-.326 2.51-.976 1.765-.837 2.927-1.488 3.485-1.488.186 0 .604.093.604.419 0 .372-.465 1.208-.465 2.277 0 .79.837 1.394 2.045 1.394zm11.754 11.805c-.604.14-1.022-1.72-.976-5.159.093-2.835.79-12.595 2.184-20.077.326-1.72.651-3.254.976-4.648-9.062 0-9.899.047-10.085-.65-.093-.419 1.209-.976 1.58-.744.465.279.79.418 2.138.418l6.6.047C299.5 3.206 300.894.79 301.545.79c.372 0 .65 1.115.558 1.534-.14.557-.326-.233-.837.883-.093.14-1.069 2.695-1.952 5.949 1.627 0 2.231.14 6.832.14 4.276 0 5.391-.233 5.53.278.094.558-2.184.511-5.67.511h-6.97c-.419 1.673-.837 3.44-1.116 5.16a196.71 196.71 0 0 0-1.72 11.2c-.372 2.649-.836 9.248-.557 11.48.232 1.765.604 1.951-.047 2.044zm19.283-17.893c.232 0 .418.465.186.558-.558.14-2.789 1.394-8.133 3.207-4.23 1.44-5.299 1.673-6.042 1.673-1.209 0-1.58-.837-1.58-1.58 0-.698.185-1.906.464-2.696.186-.65.419-1.023 1.209-1.162.232-.046.51.232.232.744-.697 1.44-.837 2.323-.93 3.067-.046.558.186.837.419.837.604 0 1.905-.14 5.856-1.534 4.554-1.627 8.04-3.114 8.319-3.114zm-12.967-3.3c-.232-.093-.418-.883-.325-1.208.093-.279.465-.79.743-.744.419.093.698.65.605 1.07-.14.417-.744.929-1.023.882zm7.525 7.25c.371-.79.836-1.487 1.254-2.044-.232-.233-.464-.465-.604-.79-.836-1.767.697-3.858 2.742-3.858s3.3 1.905 3.3 4.833v.14c.186 0 .372 0 .604-.047 2.324-.186 6.646-1.3 8.598-1.998.326-.14.558.372.326.465-1.023.418-6.321 2.138-9.063 2.37-.186.046-.372.046-.511.046-.419 4.462-3.718 8.087-5.856 8.087-2.092 0-2.65-3.578-.79-7.204zm.604 6.368c2.091 0 4.6-3.16 5.02-7.25-1.256 0-2.603-.186-3.58-.651-.371.511-.79 1.115-1.115 1.72-1.766 3.439-1.208 6.18-.325 6.18zm3.114-9.946c0 .093-.512.558-1.116 1.301.837.372 1.952.558 3.114.558v-.465c0-2.417-1.162-3.718-2.463-3.718-1.255 0-2.417 1.208-1.766 2.603.093.232.232.371.372.557.697-.743 1.301-1.161 1.44-1.161.28 0 .419.139.419.325zm10.034.046c.093-.371.418-.371.65-.418.28 0 .419.093.372.511-.093.883-.697 2.51-.79 2.882-.046.093 0 .186.14.186s1.487-.651 2.416-1.116c1.348-.697 2.278-1.208 2.975-1.208s1.255.558 1.255 1.487c-.093 1.301-.047 2.092.372 2.138.836.186 3.857-.744 6.18-1.72l7.158-2.974c.418-.186.65.465.14.697-1.906.976-4.555 2.045-7.018 3.114-2.417 1.022-5.577 2.045-6.972 1.766-.976-.186-1.208-1.162-1.115-2.463.046-.697 0-.976-.14-1.07-.232-.139-.743.047-1.626.512-.744.372-3.3 1.673-3.718 1.673-.28 0-1.116-.325-1.116-.697 0-.232.605-1.812.837-3.3zm20.91-6.227c-1.72 1.022-2.464 2.277-2.185 3.439.232.93 1.023 2.649 1.72 4.74 1.859-1.487 3.578-2.602 5.344-3.392.14-.093.698-.186.883-.14.372.14-.092.325-.371.465-1.534.604-3.486 2.091-5.577 3.95.557 1.86 1.022 3.904 1.022 6.042 0 4.927-4.136 7.901-6.832 7.901-3.811 0-3.997-5.53 2.23-11.758a55.6 55.6 0 0 1 2.51-2.37c-.604-1.813-1.347-3.533-1.673-4.88-.697-2.557.976-4.555 2.37-4.695 1.07-.139 1.023.465.558.698zm0 14.5c0-1.534-.419-3.16-.93-4.74l-1.999 1.951c-5.623 5.67-5.53 10.504-3.532 10.504 2.975 0 6.46-3.44 6.46-7.715z" fill="#fff"/><path d="M.7 20.04c-.2.02-.28-.68-.12-.72 1.16-.3 2.06-.48 2.06-1.96V8.48c0-1.28-.82-1.62-1.68-1.84-.16-.04-.06-.7.1-.68 1.46.16 3.98.12 5.2.12 1.82 0 3.14-.08 4.78-.12.48 0 .48.32.38.78l-.48 1.9c-.06.28-.56.28-.64 0-.3-.98-.9-1.54-3.4-1.54-1.4 0-1.86.36-1.86 1.4v3.46c0 .52.26.62.66.62h.44c1.62 0 3.02-.16 3.84-.9.2-.18.64-.14.46.26L9.3 14.46c-.16.36-.46.32-.68.02-.46-.64-1.48-.9-2.64-.9H5.7c-.4 0-.66.1-.66.62v3.16c0 1.48.92 1.6 2.56 1.96.18.04.08.74-.12.72-1.44-.1-2.48-.12-3.64-.12s-2.2.02-3.14.12zm32.542-.54c.16 0 .12.54 0 .58-1.26.42-3 .36-4.2-1.18l-3.08-3.96c-.86-1.12-1.88-1.28-3.28-1.3v3.88c0 1.4.96 1.64 2.24 1.8.14.02.04.68-.12.68h-6.06c-.16 0-.28-.66-.12-.68 1.02-.14 1.66-.54 1.66-1.8V8.6c0-1.32-.7-1.7-1.66-1.96-.16-.04-.06-.7.12-.68.78.1 1.66.12 2.3.12 1.48 0 2.86-.12 3.82-.12 3.02 0 5.04 1.24 5.04 3.7 0 2.32-1.88 3.46-3.56 3.56v.1c.8 0 1.38.34 2.26 1.44l2.98 3.74c.62.78 1.22 1 1.66 1zm-9.98-6.78c2.98 0 4.12-.52 4.12-2.52 0-2.14-1.36-3.2-3.14-3.2-1.18 0-1.56.48-1.56 1.6v4.12h.58zm16.443 7.32c-.2.02-.28-.68-.12-.72 1.16-.3 2.06-.48 2.06-1.96V8.48c0-1.28-.82-1.62-1.68-1.84-.16-.04-.06-.7.1-.68 1.46.16 3.98.12 5.2.12 1.82 0 3.14-.08 4.78-.12.48 0 .48.32.38.78l-.48 1.9c-.06.28-.56.28-.64 0-.3-.98-.9-1.54-3.4-1.54-1.4 0-1.86.36-1.86 1.4v3.26c0 .52.26.62.66.62h.44c1.62 0 3.02-.16 3.84-.9.2-.18.64-.14.46.26l-1.14 2.52c-.16.36-.46.32-.68.02-.46-.64-1.48-.9-2.64-.9h-.28c-.4 0-.66.1-.66.62v3.36c0 1.14.48 1.56 2.14 1.56 3.02 0 4.22-1.38 4.7-2.14.14-.22.68-.12.68.22 0 1.02-.86 3.04-2.12 3.04-1.12-.06-2.22-.12-3.9-.12-1.84 0-4.02-.06-5.84.12zm18.722 0c-.2.02-.28-.68-.12-.72 1.16-.3 2.06-.48 2.06-1.96V8.48c0-1.28-.82-1.62-1.68-1.84-.16-.04-.06-.7.1-.68 1.46.16 3.98.12 5.2.12 1.82 0 3.14-.08 4.78-.12.48 0 .48.32.38.78l-.48 1.9c-.06.28-.56.28-.64 0-.3-.98-.9-1.54-3.4-1.54-1.4 0-1.86.36-1.86 1.4v3.26c0 .52.26.62.66.62h.44c1.62 0 3.02-.16 3.84-.9.2-.18.64-.14.46.26l-1.14 2.52c-.16.36-.46.32-.68.02-.46-.64-1.48-.9-2.64-.9h-.28c-.4 0-.66.1-.66.62v3.36c0 1.14.48 1.56 2.14 1.56 3.02 0 4.22-1.38 4.7-2.14.14-.22.68-.12.68.22 0 1.02-.86 3.04-2.12 3.04-1.12-.06-2.22-.12-3.9-.12-1.84 0-4.02-.06-5.84.12zm18.723 0c-.2.02-.28-.68-.12-.72 1.16-.3 2.06-.48 2.06-1.96V8.48c0-1.4-.82-1.68-1.68-1.8-.16-.02-.04-.68.1-.68h5.52c.14 0 .24.66.1.68-.84.1-1.64.4-1.64 1.8v8.88c0 1.14.48 1.56 2.14 1.56 3.02 0 4.22-1.38 4.7-2.14.14-.22.68-.12.68.22 0 1.02-.86 3.04-2.12 3.04-1.12-.06-2.22-.12-3.9-.12-1.84 0-4.02-.06-5.84.12zm33.262-.72c.28.04.2.68-.04.68h-5.28c-.26 0-.28-.64-.06-.68.74-.14 1.54-.4.8-2.12l-.22-.5c-.2-.48-.54-.52-1.14-.52h-4.08c-.6 0-.94.04-1.14.52l-.2.5c-.7 1.72.06 1.98 1.02 2.12.26.04.2.68-.06.68h-4.32c-.24 0-.3-.64-.06-.68.82-.14 1.3-.42 2.04-2.12l3.38-7.76c.78-1.76 1.02-2.58 1.02-3.34 0-.12 1.4-.44 1.46-.3l4.88 11.38c.72 1.7 1.2 2.02 2 2.14zm-6.08-4.26c.28 0 .58-.04.46-.32l-2.34-5.6-2.36 5.6c-.12.28.18.32.46.32h3.78zm26.183 5.14c-.34 0-.52-.14-.74-.38l-9.52-9.96v7.6c0 1.36.8 1.58 1.94 1.86.16.04.08.68-.12.68h-4.74c-.16 0-.28-.62-.1-.68.84-.28 1.64-.44 1.64-1.86V9.7c0-1.42-.22-2.1-.74-2.8-.18-.24-.36-.4-.36-.46 0-.18.12-.44.4-.44h1.48c.2 0 .34.02.48.18l9.32 9.86V8.52c0-1.42-.9-1.58-1.94-1.84-.16-.04-.08-.68.12-.68h4.74c.16 0 .26.64.1.68-.88.26-1.64.42-1.64 1.84v7.78c0 1.32.04 2.78.24 3.52.08.3-.24.38-.56.38zm17.203.12c-3.36 0-7.9-1.96-7.9-7.06 0-3.46 2.12-7.58 7.72-7.58 2.32 0 4.32.72 4.08 1.42l-.26.78c-.72 2.14-1.5-.6-5.06-.6-2.86 0-4.26 1.86-4.26 4.74 0 4.5 3.42 6.38 6.16 6.38.36 0 2.18-.28 3.22-.94.16-.1.58.36.46.54-.86 1.26-3.54 2.32-4.16 2.32zm11.242-.28c-.2.02-.28-.68-.12-.72 1.16-.3 2.06-.48 2.06-1.96V8.48c0-1.28-.82-1.62-1.68-1.84-.16-.04-.06-.7.1-.68 1.46.16 3.98.12 5.2.12 1.82 0 3.14-.08 4.78-.12.48 0 .48.32.38.78l-.48 1.9c-.06.28-.56.28-.64 0-.3-.98-.9-1.54-3.4-1.54-1.4 0-1.86.36-1.86 1.4v3.26c0 .52.26.62.66.62h.44c1.62 0 3.02-.16 3.84-.9.2-.18.64-.14.46.26l-1.14 2.52c-.16.36-.46.32-.68.02-.46-.64-1.48-.9-2.64-.9h-.28c-.4 0-.66.1-.66.62v3.36c0 1.14.48 1.56 2.14 1.56 3.02 0 4.22-1.38 4.7-2.14.14-.22.68-.12.68.22 0 1.02-.86 3.04-2.12 3.04-1.12-.06-2.22-.12-3.9-.12-1.84 0-4.02-.06-5.84.12zM208.545 6c.26 0 .32.64.06.68-.8.12-1.42.42-2.08 2.12l-3.02 7.84c-.64 1.66-.96 2.58-.96 3.36 0 .12-1.4.44-1.46.3l-3.14-8-1.88 4.34c-.72 1.66-.96 2.56-.96 3.36 0 .12-1.42.44-1.48.3l-4.56-11.48c-.68-1.72-1.28-2.02-2.06-2.14-.26-.04-.2-.68.06-.68h5.2c.26 0 .3.64.06.68-.92.16-1.4.58-.8 2.12l3.16 8.16 2.04-4.72c.46-1.06.52-1.7-.02-3.08-.74-1.9-1.26-2.34-1.78-2.48-.22-.06-.2-.68.06-.68h3.98c.2 0 .26.06.26.16 0 .26-.88.88-.2 2.64l3.08 8 3.04-8c.66-1.72 0-1.94-.96-2.12-.22-.04-.18-.68.06-.68h4.3zm21.682 13.5c.16 0 .12.54 0 .58-1.26.42-3 .36-4.2-1.18l-3.08-3.96c-.86-1.12-1.88-1.28-3.28-1.3v3.88c0 1.4.96 1.64 2.24 1.8.14.02.04.68-.12.68h-6.06c-.16 0-.28-.66-.12-.68 1.02-.14 1.66-.54 1.66-1.8V8.6c0-1.32-.7-1.7-1.66-1.96-.16-.04-.06-.7.12-.68.78.1 1.66.12 2.3.12 1.48 0 2.86-.12 3.82-.12 3.02 0 5.04 1.24 5.04 3.7 0 2.32-1.88 3.46-3.56 3.56v.1c.8 0 1.38.34 2.26 1.44l2.98 3.74c.62.78 1.22 1 1.66 1zm-9.98-6.78c2.98 0 4.12-.52 4.12-2.52 0-2.14-1.36-3.2-3.14-3.2-1.18 0-1.56.48-1.56 1.6v4.12h.58zM236.99 20c-.16 0-.28-.66-.12-.68 1.02-.14 1.66-.54 1.66-1.8V8.48c0-1.26-.64-1.66-1.66-1.8-.16-.02-.04-.68.12-.68h5.48c.16 0 .28.66.12.68-.86.12-1.66.4-1.66 1.8v9.04c0 1.4.8 1.68 1.66 1.8.16.02.04.68-.12.68h-5.48zm15.622 0c-.18 0-.3-.64-.14-.66 1.38-.18 2.3-.46 2.3-1.54V7.94c0-.5-.18-.66-.66-.66h-.54c-1.9 0-2.96.44-3.36 1.3-.18.4-.86.34-.78 0 .18-.72.34-1.34.46-2.4.04-.38.26-.36.62-.32.92.1 1.76.14 5.56.14s5.14-.04 6.1-.14c.36-.04.7-.06.58.32-.3.94-.5 1.68-.62 2.4-.06.34-.6.36-.68 0-.2-.84-1.08-1.3-2.8-1.3h-.62c-.48 0-.78.16-.78.66v9.86c0 1.08.92 1.36 2.3 1.54.16.02.04.66-.14.66h-6.8zm16.823.04c-.2.02-.28-.68-.12-.72 1.16-.3 2.06-.48 2.06-1.96V8.48c0-1.28-.82-1.62-1.68-1.84-.16-.04-.06-.7.1-.68 1.46.16 3.98.12 5.2.12 1.82 0 3.14-.08 4.78-.12.48 0 .48.32.38.78l-.48 1.9c-.06.28-.56.28-.64 0-.3-.98-.9-1.54-3.4-1.54-1.4 0-1.86.36-1.86 1.4v3.26c0 .52.26.62.66.62h.44c1.62 0 3.02-.16 3.84-.9.2-.18.64-.14.46.26l-1.14 2.52c-.16.36-.46.32-.68.02-.46-.64-1.48-.9-2.64-.9h-.28c-.4 0-.66.1-.66.62v3.36c0 1.14.48 1.56 2.14 1.56 3.02 0 4.22-1.38 4.7-2.14.14-.22.68-.12.68.22 0 1.02-.86 3.04-2.12 3.04-1.12-.06-2.22-.12-3.9-.12-1.84 0-4.02-.06-5.84.12zm33.522-.54c.16 0 .12.54 0 .58-1.26.42-3 .36-4.2-1.18l-3.08-3.96c-.86-1.12-1.88-1.28-3.28-1.3v3.88c0 1.4.96 1.64 2.24 1.8.14.02.04.68-.12.68h-6.06c-.16 0-.28-.66-.12-.68 1.02-.14 1.66-.54 1.66-1.8V8.6c0-1.32-.7-1.7-1.66-1.96-.16-.04-.06-.7.12-.68.78.1 1.66.12 2.3.12 1.48 0 2.86-.12 3.82-.12 3.02 0 5.04 1.24 5.04 3.7 0 2.32-1.88 3.46-3.56 3.56v.1c.8 0 1.38.34 2.26 1.44l2.98 3.74c.62.78 1.22 1 1.66 1zm-9.98-6.78c2.98 0 4.12-.52 4.12-2.52 0-2.14-1.36-3.2-3.14-3.2-1.18 0-1.56.48-1.56 1.6v4.12h.58z" transform="translate(64.64 58.87) scale(.7271)" fill="url(#a)"/></svg>